<?xml version="1.0" encoding="UTF-8" standalone="no"?>
<!-- Created with Inkscape (http://www.inkscape.org/) -->

<svg
   width="512"
   height="512"
   viewBox="0 0 512 512"
   version="1.1"
   id="svg1"
   xmlns:inkscape="http://www.inkscape.org/namespaces/inkscape"
   xmlns:sodipodi="http://sodipodi.sourceforge.net/DTD/sodipodi-0.dtd"
   xmlns="http://www.w3.org/2000/svg"
   xmlns:svg="http://www.w3.org/2000/svg">
  <sodipodi:namedview
     id="namedview1"
     pagecolor="#ffffff"
     bordercolor="#000000"
     borderopacity="0.25"
     inkscape:showpageshadow="2"
     inkscape:pageopacity="0.0"
     inkscape:pagecheckerboard="0"
     inkscape:deskcolor="#d1d1d1"
     inkscape:document-units="px" />
  <defs
     id="defs1" />
  <g
     inkscape:label="Warstwa 1"
     inkscape:groupmode="layer"
     id="layer1">
    <path
       style="fill:none;stroke:#000000;stroke-width:2.13543"
       d="m 102.02214,306.06642 c 0,0 171.9262,43.45388 224.82657,14.48463 52.90037,-28.96925 20.15252,-94.46495 20.15252,-94.46495 0,0 -21.41205,-20.15252 -35.26691,22.04182 -13.85486,42.19434 -25.19066,32.74785 -28.33949,32.74785 -0.8371,0 15.40381,-36.68464 12.03177,-53.14113 -1.64709,-8.03827 -0.44558,-20.36043 -8.88032,-36.13822 -6.18807,-11.57523 -67.74971,-57.1105 -107.40116,-44.08461 -32.41059,10.6472 -58.43475,27.73216 -68.1884,44.98342 -19.414287,34.338 1.38493,71.2002 -5.15598,72.3215 -22.04182,3.7786 -55.419436,11.02091 -3.7786,41.24969 z"
       id="path1"
       sodipodi:nodetypes="cscsssssssc" />
    <path
       style="fill:none;stroke:#000000;stroke-width:2.13543"
       d="m 332.51661,221.04797 c 0,0 -8.18697,-25.82042 -6.92743,-34.63715"
       id="path2" />
    <path
       style="fill:none;stroke:#000000;stroke-width:2.13543"
       d="m 344.48216,224.51169 c 0,0 10.70603,-15.1144 8.81673,-33.37762"
       id="path3" />
    <path
       style="fill:#ffffff;fill-opacity:1;stroke:#000000;stroke-width:2.13543"
       d="m 107.37515,264.18696 c 0,0 0,17.00369 17.94834,25.50554 17.94834,8.50184 31.17344,19.52275 54.78967,17.94834 23.61624,-1.57442 40.61993,14.16974 61.08733,-0.62977 20.46741,-14.79951 34.32227,-25.50553 39.3604,-51.32595 5.03813,-25.82042 11.96556,-39.04551 -14.16975,-59.19804 -26.1353,-20.15252 -42.19434,-35.26691 -67.07011,-22.67158 -24.87577,12.59532 -59.82779,3.46371 -60.14268,33.06273 -0.31488,29.59901 -14.16974,45.65806 6.92743,61.7171 21.09717,16.05904 41.24969,29.59901 59.19803,22.04182 17.94834,-7.5572 54.78967,-30.22879 51.01107,-51.01107 -3.77859,-20.78229 -3.77859,-33.06273 -17.31857,-41.56458 -13.53998,-8.50184 -19.52276,-17.63346 -40.30504,-12.59533 -20.78229,5.03814 -49.43666,17.00369 -47.54736,36.21157 1.8893,19.20787 15.42928,47.86224 29.28413,47.54735 13.85486,-0.31488 40.61993,-5.35301 39.3604,-17.63345 -1.25953,-12.28045 -20.46741,-25.82042 -20.46741,-25.82042"
       id="path24" />
    <path
       style="fill:#00ffff;fill-opacity:1;stroke:#000000;stroke-width:0.672412"
       d="m 259.93604,329.15597 c -36.95238,-1.15441 -85.78305,-8.1508 -138.2337,-19.80593 -18.23314,-4.05161 -18.80042,-4.20996 -21.950746,-6.12738 -12.914904,-7.86058 -21.442921,-15.37833 -23.247736,-20.49372 -0.528947,-1.4992 -0.597492,-3.65361 -0.153407,-4.82165 0.479824,-1.26203 2.755829,-3.54572 4.727454,-4.74342 3.773812,-2.29247 11.358651,-4.64067 20.359055,-6.30298 2.33654,-0.43155 4.3741,-0.78463 4.52791,-0.78463 0.15381,0 0.36571,0.53137 0.4709,1.18081 0.35806,2.21089 1.78998,6.51796 2.90333,8.73296 3.4003,6.76487 7.66358,10.80968 15.66951,14.86654 2.59779,1.31638 6.70701,3.45364 9.13161,4.74945 14.3212,7.65389 21.8654,10.77845 29.44158,12.19371 1.47207,0.275 2.9599,0.57845 3.30627,0.67435 0.34637,0.0959 5.94342,0.28389 12.43788,0.41776 13.05606,0.26911 13.38895,0.30975 25.50554,3.11385 7.92416,1.83386 10.65727,2.27549 15.30483,2.47302 8.66953,0.36846 15.00537,-1.5824 22.44849,-6.9121 19.72446,-14.12383 28.1762,-22.85176 33.90375,-35.01165 2.79028,-5.9239 3.90499,-9.85008 6.89061,-24.2696 2.53288,-12.23297 3.04253,-15.68377 3.04946,-20.64778 0.008,-6.03192 -0.89062,-9.96338 -3.37911,-14.77657 -3.7391,-7.23207 -7.99643,-11.36115 -26.10487,-25.31847 -12.86286,-9.91421 -21.3839,-15.15954 -28.44854,-17.51217 -4.27383,-1.42326 -7.13913,-1.88277 -11.74004,-1.88277 -6.38059,0 -10.05993,0.92878 -18.0648,4.56013 -8.05186,3.65266 -12.61493,4.95159 -26.60763,7.57415 -13.33034,2.49842 -17.27535,3.57042 -22.04182,5.98954 -4.75595,2.41377 -7.83289,5.37722 -9.7286,9.36974 -1.54802,3.26026 -1.91595,5.27663 -2.39522,13.12637 -0.50448,8.26294 -0.93794,11.82995 -2.5285,20.80765 -1.67993,9.48219 -2.02492,12.37438 -2.02525,16.97833 -9e-4,12.63046 3.92339,17.84789 23.91988,31.80207 19.90546,13.89064 34.12848,18.22872 46.38732,14.14831 8.4827,-2.82351 24.43193,-12.11833 34.18308,-19.92105 4.94282,-3.95518 10.57252,-9.55086 13.35726,-13.27657 4.10925,-5.49775 6.52007,-11.57789 6.52007,-16.44376 0,-2.30875 -2.10861,-15.4786 -3.66296,-22.87798 -0.99255,-4.72497 -2.80912,-9.90424 -4.57255,-13.03694 -1.7619,-3.12998 -6.09163,-7.52593 -9.76561,-9.91497 -1.50111,-0.97611 -5.18524,-3.49725 -8.18696,-5.60254 -5.84744,-4.10116 -10.85412,-6.75873 -14.58929,-7.74407 -3.0977,-0.81717 -12.07505,-0.82519 -15.9016,-0.0142 -6.36076,1.34807 -14.99665,4.00752 -21.41205,6.59393 -15.90072,6.41046 -25.73355,14.49255 -28.83066,23.69737 -1.45465,4.3233 -1.10257,10.17072 1.1186,18.57811 5.27363,19.96129 16.06935,35.61204 25.95692,37.63021 2.20126,0.4493 6.47209,0.23542 12.8461,-0.64332 12.54662,-1.72971 22.17275,-5.23898 26.70151,-9.73421 1.14257,-1.13412 2.34736,-2.62882 2.67731,-3.32157 0.84584,-1.77589 0.99429,-5.55313 0.3112,-7.91808 -1.28444,-4.44685 -5.20423,-10.12153 -10.76423,-15.58339 -3.73584,-3.66991 -9.19464,-8.21004 -9.67768,-8.04902 -0.16812,0.056 -0.59747,0.49271 -0.9541,0.97039 -0.58519,0.7838 -0.59858,0.8964 -0.1373,1.15455 1.35806,0.76 6.14704,4.89051 9.28026,8.00423 5.67324,5.63796 9.03034,10.69826 10.06921,15.17776 0.60916,2.62664 0.23413,4.50671 -1.29967,6.51547 -3.94942,5.1724 -16.0122,9.41951 -30.95445,10.89855 -6.80967,0.67405 -8.69362,0.35861 -12.36341,-2.07008 -8.95229,-5.92469 -18.22239,-24.24357 -20.8772,-41.25603 -0.64853,-4.15585 -0.62739,-5.49304 0.13387,-8.46956 1.86864,-7.3063 8.63863,-13.96485 20.15117,-19.81948 9.68914,-4.92734 24.3057,-9.60994 32.98568,-10.56738 6.05102,-0.66745 11.3264,0.39381 16.84916,3.38958 2.67243,1.44963 12.39773,8.01005 17.6528,11.90808 5.63982,4.18343 8.74054,9.50566 10.90366,18.71564 1.25384,5.33849 3.7912,20.93783 3.7922,23.31392 0.005,11.37122 -12.31641,25.12824 -34.4787,38.49658 -5.78956,3.49227 -15.50637,8.22274 -18.89299,9.19775 -10.07957,2.90191 -21.76531,-0.36133 -37.62854,-10.50774 -6.1786,-3.95195 -17.60554,-12.3798 -20.66268,-15.23961 -6.17489,-5.7763 -8.5754,-12.49544 -7.70091,-21.55522 0.197,-2.04083 0.99035,-7.39473 1.76302,-11.89756 1.91648,-11.16846 2.31095,-14.39554 2.66543,-21.80542 0.16777,-3.50688 0.51445,-7.2791 0.77039,-8.3827 1.70104,-7.33475 6.39789,-11.83103 15.45012,-14.79038 3.44835,-1.12734 6.46369,-1.80437 16.37392,-3.67644 14.51885,-2.74265 18.73178,-3.94274 27.03804,-7.70199 9.04877,-4.09531 14.52434,-5.1621 21.23139,-4.13646 7.80906,1.19415 15.57235,4.9865 26.55545,12.97223 4.97211,3.61519 20.43672,15.68693 23.06838,18.00727 6.52233,5.75076 10.80105,12.07736 12.50692,18.49298 0.89311,3.35888 0.96518,9.88535 0.16343,14.79951 -0.7425,4.55097 -4.41701,22.19213 -5.39013,25.87774 -3.88614,14.71843 -11.60911,25.25665 -27.5548,37.59933 -14.07954,10.89819 -18.46935,13.08199 -26.98747,13.42542 -5.33234,0.21499 -8.37155,-0.17827 -17.83586,-2.30789 -13.70062,-3.08286 -13.54869,-3.06375 -24.92327,-3.13567 -10.29783,-0.0651 -13.25539,-0.30107 -18.26323,-1.45709 -6.81421,-1.57301 -13.11463,-4.24071 -25.50553,-10.79947 -4.32964,-2.29177 -9.09152,-4.74782 -10.58195,-5.4579 -8.37511,-3.99009 -14.01368,-10.22725 -16.64363,-18.41052 -0.64684,-2.01268 -1.3012,-5.92105 -1.43464,-8.56888 -0.0698,-1.38549 -0.69521,-5.42386 -1.38973,-8.97417 -2.72577,-13.93373 -3.33354,-19.56997 -3.08434,-28.60296 0.51079,-18.51515 6.81696,-33.14955 19.21183,-44.5839 6.07628,-5.60541 14.27114,-11.49088 22.4243,-16.10492 12.07936,-6.83596 31.75712,-14.88116 40.01637,-16.36059 19.42582,-3.47962 46.87744,5.16642 75.09354,23.65115 7.81173,5.11757 17.13022,12.51374 21.1897,16.81848 2.79382,2.9626 4.23156,5.22026 5.97266,9.37876 3.05035,7.28555 4.2558,12.3217 5.40567,22.58381 0.40752,3.6369 0.91338,7.59932 1.12415,8.80539 0.50997,2.91828 0.2068,9.69013 -0.63966,14.28745 -1.42847,7.75841 -4.46492,18.03217 -9.18047,31.06196 -1.19087,3.29058 -2.16523,6.43905 -2.16523,6.99661 0,1.11776 0.36949,1.29179 4.27594,2.01393 6.36211,1.1761 12.37064,-3.53493 18.18493,-14.25802 2.06222,-3.80329 4.81652,-10.45724 7.59441,-18.34693 2.81082,-7.98322 4.52981,-12.02346 6.66552,-15.6664 3.18516,-5.43302 7.22864,-9.4386 11.14144,-11.03702 1.42638,-0.58269 2.31504,-0.70525 5.03813,-0.69482 3.82429,0.0146 5.65535,0.58449 8.89782,2.76911 1.83217,1.23443 2.01711,1.47666 3.16465,4.145 2.70675,6.29393 5.65087,16.05711 6.97914,23.14391 1.81736,9.6963 1.93099,21.22946 0.28804,29.23583 -3.00824,14.6597 -10.75829,25.98323 -23.64729,34.55086 -5.81147,3.86302 -11.47661,6.28131 -19.57743,8.35704 -13.03426,3.33986 -31.01643,4.79668 -51.362,4.16107 z"
       id="path25" />
  </g>
</svg>
